<mxfile host="app.diagrams.net" agent="Mozilla/5.0 (Windows NT 10.0; Win64; x64; rv:143.0) Gecko/20100101 Firefox/143.0" version="28.2.5">
  <diagram name="Page-1" id="4hdHNgOPwrDgJoQW6m3U">
    <mxGraphModel grid="1" page="1" gridSize="10" guides="1" tooltips="1" connect="1" arrows="1" fold="1" pageScale="1" pageWidth="827" pageHeight="1169" math="0" shadow="0">
      <root>
        <mxCell id="0" />
        <mxCell id="1" parent="0" />
        <mxCell id="Sz_EuYGUkUfomINsorZj-3" value="&lt;div&gt;C_revisar-admin&lt;/div&gt;&lt;div&gt;(route.ts)&lt;/div&gt;" style="rounded=0;whiteSpace=wrap;html=1;fillColor=#e1d5e7;strokeColor=#9673a6;" vertex="1" parent="1">
          <mxGeometry x="-245" y="80" width="120" height="60" as="geometry" />
        </mxCell>
        <mxCell id="Sz_EuYGUkUfomINsorZj-4" value="reviews" style="rounded=0;whiteSpace=wrap;html=1;fillColor=#d5e8d4;strokeColor=#82b366;" vertex="1" parent="1">
          <mxGeometry x="95" y="80" width="120" height="60" as="geometry" />
        </mxCell>
        <mxCell id="Sz_EuYGUkUfomINsorZj-5" value="Actor" style="shape=umlActor;verticalLabelPosition=bottom;verticalAlign=top;html=1;outlineConnect=0;" vertex="1" parent="1">
          <mxGeometry x="-740" y="80" width="30" height="60" as="geometry" />
        </mxCell>
        <mxCell id="Sz_EuYGUkUfomINsorZj-7" value="" style="endArrow=none;dashed=1;html=1;dashPattern=1 3;strokeWidth=2;rounded=0;entryX=0.5;entryY=0.5;entryDx=0;entryDy=0;entryPerimeter=0;" edge="1" parent="1" target="Sz_EuYGUkUfomINsorZj-5">
          <mxGeometry width="50" height="50" relative="1" as="geometry">
            <mxPoint x="-725" y="680" as="sourcePoint" />
            <mxPoint x="-703" y="210" as="targetPoint" />
          </mxGeometry>
        </mxCell>
        <mxCell id="Sz_EuYGUkUfomINsorZj-8" value="" style="endArrow=none;dashed=1;html=1;dashPattern=1 3;strokeWidth=2;rounded=0;entryX=0.5;entryY=1;entryDx=0;entryDy=0;" edge="1" parent="1" target="Sz_EuYGUkUfomINsorZj-3">
          <mxGeometry width="50" height="50" relative="1" as="geometry">
            <mxPoint x="-185" y="680" as="sourcePoint" />
            <mxPoint x="55" y="410" as="targetPoint" />
          </mxGeometry>
        </mxCell>
        <mxCell id="Sz_EuYGUkUfomINsorZj-9" value="" style="endArrow=none;dashed=1;html=1;dashPattern=1 3;strokeWidth=2;rounded=0;entryX=0.5;entryY=1;entryDx=0;entryDy=0;" edge="1" parent="1" target="Sz_EuYGUkUfomINsorZj-4">
          <mxGeometry width="50" height="50" relative="1" as="geometry">
            <mxPoint x="155" y="680" as="sourcePoint" />
            <mxPoint x="225" y="410" as="targetPoint" />
          </mxGeometry>
        </mxCell>
        <mxCell id="Sz_EuYGUkUfomINsorZj-15" value="V_revisar-reviews" style="rounded=0;whiteSpace=wrap;html=1;fillColor=#ffe6cc;strokeColor=#d79b00;" vertex="1" parent="1">
          <mxGeometry x="-460" y="80" width="120" height="60" as="geometry" />
        </mxCell>
        <mxCell id="Sz_EuYGUkUfomINsorZj-16" value="" style="endArrow=none;dashed=1;html=1;dashPattern=1 3;strokeWidth=2;rounded=0;entryX=0.5;entryY=1;entryDx=0;entryDy=0;" edge="1" parent="1" target="Sz_EuYGUkUfomINsorZj-15">
          <mxGeometry width="50" height="50" relative="1" as="geometry">
            <mxPoint x="-400" y="680" as="sourcePoint" />
            <mxPoint x="-370" y="280" as="targetPoint" />
          </mxGeometry>
        </mxCell>
        <mxCell id="Sz_EuYGUkUfomINsorZj-43" value="" style="endArrow=classic;html=1;rounded=0;" edge="1" parent="1">
          <mxGeometry width="50" height="50" relative="1" as="geometry">
            <mxPoint x="-716" y="240" as="sourcePoint" />
            <mxPoint x="-401" y="240" as="targetPoint" />
          </mxGeometry>
        </mxCell>
        <mxCell id="Sz_EuYGUkUfomINsorZj-44" value="Clic botón Rechazar" style="text;html=1;align=center;verticalAlign=middle;resizable=0;points=[];autosize=1;strokeColor=none;fillColor=none;" vertex="1" parent="1">
          <mxGeometry x="-561" y="210" width="130" height="30" as="geometry" />
        </mxCell>
        <mxCell id="Sz_EuYGUkUfomINsorZj-45" value="" style="endArrow=classic;html=1;rounded=0;" edge="1" parent="1">
          <mxGeometry width="50" height="50" relative="1" as="geometry">
            <mxPoint x="-396" y="270" as="sourcePoint" />
            <mxPoint x="-190" y="270" as="targetPoint" />
          </mxGeometry>
        </mxCell>
        <mxCell id="Sz_EuYGUkUfomINsorZj-46" value="POST/api/revisar-admin( id, state=0)" style="text;html=1;align=center;verticalAlign=middle;resizable=0;points=[];autosize=1;strokeColor=none;fillColor=none;" vertex="1" parent="1">
          <mxGeometry x="-396" y="230" width="220" height="30" as="geometry" />
        </mxCell>
        <mxCell id="Sz_EuYGUkUfomINsorZj-47" value="" style="endArrow=classic;html=1;rounded=0;" edge="1" parent="1">
          <mxGeometry width="50" height="50" relative="1" as="geometry">
            <mxPoint x="-180" y="290" as="sourcePoint" />
            <mxPoint x="154" y="290" as="targetPoint" />
          </mxGeometry>
        </mxCell>
        <mxCell id="Sz_EuYGUkUfomINsorZj-48" value="DELETE FROM reviews WHERE id = ?, id" style="text;html=1;align=center;verticalAlign=middle;resizable=0;points=[];autosize=1;strokeColor=none;fillColor=none;" vertex="1" parent="1">
          <mxGeometry x="-136" y="250" width="250" height="30" as="geometry" />
        </mxCell>
        <mxCell id="Sz_EuYGUkUfomINsorZj-49" value="" style="endArrow=classic;html=1;rounded=0;dashed=1;" edge="1" parent="1">
          <mxGeometry width="50" height="50" relative="1" as="geometry">
            <mxPoint x="150" y="330" as="sourcePoint" />
            <mxPoint x="-176" y="330" as="targetPoint" />
          </mxGeometry>
        </mxCell>
        <mxCell id="Sz_EuYGUkUfomINsorZj-50" value="ERROR" style="text;html=1;align=center;verticalAlign=middle;resizable=0;points=[];autosize=1;strokeColor=none;fillColor=none;" vertex="1" parent="1">
          <mxGeometry x="-91" y="298" width="70" height="30" as="geometry" />
        </mxCell>
        <mxCell id="Sz_EuYGUkUfomINsorZj-51" value="" style="endArrow=classic;html=1;rounded=0;" edge="1" parent="1">
          <mxGeometry width="50" height="50" relative="1" as="geometry">
            <mxPoint x="-186" y="350" as="sourcePoint" />
            <mxPoint x="-396" y="350" as="targetPoint" />
          </mxGeometry>
        </mxCell>
        <mxCell id="Sz_EuYGUkUfomINsorZj-52" value="ERROR" style="text;html=1;align=center;verticalAlign=middle;resizable=0;points=[];autosize=1;strokeColor=none;fillColor=none;" vertex="1" parent="1">
          <mxGeometry x="-331" y="318" width="70" height="30" as="geometry" />
        </mxCell>
        <mxCell id="Sz_EuYGUkUfomINsorZj-53" value="" style="endArrow=classic;html=1;rounded=0;" edge="1" parent="1">
          <mxGeometry width="50" height="50" relative="1" as="geometry">
            <mxPoint x="-396" y="400" as="sourcePoint" />
            <mxPoint x="-396" y="420" as="targetPoint" />
            <Array as="points">
              <mxPoint x="-326" y="400" />
              <mxPoint x="-326" y="420" />
            </Array>
          </mxGeometry>
        </mxCell>
        <mxCell id="Sz_EuYGUkUfomINsorZj-54" value="Maneja error" style="text;html=1;align=center;verticalAlign=middle;resizable=0;points=[];autosize=1;strokeColor=none;fillColor=none;" vertex="1" parent="1">
          <mxGeometry x="-346" y="368" width="90" height="30" as="geometry" />
        </mxCell>
        <mxCell id="Sz_EuYGUkUfomINsorZj-57" value="" style="endArrow=classic;html=1;rounded=0;" edge="1" parent="1">
          <mxGeometry width="50" height="50" relative="1" as="geometry">
            <mxPoint x="-396" y="480" as="sourcePoint" />
            <mxPoint x="-726" y="480" as="targetPoint" />
          </mxGeometry>
        </mxCell>
        <mxCell id="Sz_EuYGUkUfomINsorZj-59" value="Muestra alerta &quot;Error al rechazar reseña&quot;" style="text;html=1;align=center;verticalAlign=middle;resizable=0;points=[];autosize=1;strokeColor=none;fillColor=none;" vertex="1" parent="1">
          <mxGeometry x="-666" y="450" width="240" height="30" as="geometry" />
        </mxCell>
      </root>
    </mxGraphModel>
  </diagram>
</mxfile>
